#!OML:ASF H:\IndianDance\Patient Classification 1\Patient 1\Session 1\dancer.ASF
:FULLY-SPECIFIED
:DEGREES
1779
root -2.66479 15.5671 18.6907 902.46 -113.188 -174.19
lowerback 4.38669 2.89705 -3.68166
upperback -6.89132 3.19893 -2.98843
thorax -9.81869 1.6482 -1.53143
lowerneck -12.6902 14.6324 11.4126
upperneck 16.3866 17.4938 0.94676
head 8.06419 9.09657 0.554483
rclavicle -1.31695e-014 1.90833e-014
rhumerus -20.8514 -15.5642 -12.6525
rradius 95.8971
rwrist -43.8342
rhand -42.2769 27.293
rfingers 7.12502
rthumb -15.1619 -2.13156
lclavicle -1.31695e-014 1.90833e-014
lhumerus 20.2164 -55.8151 -6.69799
lradius 110.995
lwrist 6.38314
lhand -51.6166 5.65374
lfingers 7.12502
lthumb -24.14 -325.845
rfemur -21.3697 -11.1173 14.5235
rtibia 35.8285
rfoot -14.1743 -22.0931
rtoes 1.45853
lfemur 141.562 150.646 165.691
ltibia 60.1546
lfoot 16.8144 -9.9549
ltoes 16.0946
1780
root -2.6917 15.5588 18.5904 903.884 -113.697 -175.725
lowerback 4.47959 2.77766 -3.49949
upperback -6.89983 3.05674 -2.9293
thorax -9.8737 1.56918 -1.55655
lowerneck -12.6403 14.5235 11.4467
upperneck 16.3542 17.3054 1.12821
head 8.02318 9.02614 0.575034
rclavicle 6.54002e-014 7.15625e-015
rhumerus -20.2586 -17.7141 -11.2684
rradius 92.8103
rwrist -48.3847
rhand -41.4827 23.8619
rfingers 7.12502
rthumb -14.3967 -5.61885
lclavicle 6.54002e-014 7.15625e-015
lhumerus 21.9095 -56.2016 -7.9987
lradius 111.799
lwrist 5.23614
lhand -51.8624 4.52503
lfingers 7.12502
lthumb -24.3756 -327.005
rfemur -20.9433 -11.6501 15.5262
rtibia 34.7357
rfoot -13.4511 -21.8278
rtoes 0.886975
lfemur 138.85 149.016 166.034
ltibia 64.3902
lfoot 19.5753 -8.39257
ltoes 20.7527
1781
root -2.71623 15.551 18.4933 905.143 -114.081 -177.195
lowerback 4.69446 2.69543 -3.30097
upperback -6.91775 2.96272 -2.84508
thorax -10.0135 1.51333 -1.5778
lowerneck -12.5328 14.4157 11.4532
upperneck 16.3536 17.1365 1.29195
head 7.98339 8.96266 0.593449
rclavicle 1.83876e-015 -6.36111e-015
rhumerus -19.4729 -19.7642 -10.0405
rradius 89.6043
rwrist -53.0571
rhand -40.529 20.4986
rfingers 7.12502
rthumb -13.4777 -9.04536
lclavicle 1.83876e-015 -6.36111e-015
lhumerus 23.4462 -56.6618 -9.08084
lradius 112.5
lwrist 4.07863
lhand -52.0898 3.59958
lfingers 7.12502
lthumb -24.5936 -327.96
rfemur -20.6454 -12.5125 16.5762
rtibia 34.1409
rfoot -13.0441 -21.2363
rtoes 0.386462
lfemur 136.286 147.497 166.466
ltibia 68.8302
lfoot 22.1868 -7.18782
ltoes 24.403
1782
root -2.73806 15.5436 18.3999 906.2 -114.323 -178.577
lowerback 5.05426 2.64855 -3.10199
upperback -6.94098 2.91327 -2.7353
thorax -10.2486 1.47984 -1.58624
lowerneck -12.3729 14.3217 11.4558
upperneck 16.4111 17.0024 1.42107
head 7.95895 8.91332 0.605429
rclavicle 1.25731e-014 3.97569e-015
rhumerus -18.4881 -21.7577 -9.01303
rradius 86.3084
rwrist -57.6951
rhand -39.369 17.1525
rfingers 7.12502
rthumb -12.3594 -12.4622
lclavicle 1.25731e-014 3.97569e-015
lhumerus 24.7435 -57.2095 -9.86548
lradius 113.105
lwrist 2.92935
lhand -52.3302 2.78204
lfingers 7.12502
lthumb -24.8239 -328.809
rfemur -20.3898 -13.5521 17.6061
rtibia 33.8804
rfoot -12.9043 -20.4431
rtoes 0.0117764
lfemur 133.943 146.022 167.006
ltibia 73.4402
lfoot 24.6934 -6.59433
ltoes 26.9802
1783
root -2.75703 15.5368 18.3107 907.061 -114.408 -179.882
lowerback 5.56464 2.63673 -2.90326
upperback -6.96339 2.90917 -2.60294
thorax -10.5757 1.4687 -1.58492
lowerneck -12.2164 14.2475 11.4652
upperneck 16.5775 16.899 1.52401
head 7.97632 8.87776 0.618335
rclavicle -1.39149e-014 5.56597e-015
rhumerus -17.317 -23.7313 -8.22821
rradius 82.9548
rwrist -62.1648
rhand -37.9884 13.8059
rfingers 7.12502
rthumb -11.0281 -15.8844
lclavicle -1.39149e-014 5.56597e-015
lhumerus 25.7551 -57.846 -10.3176
lradius 113.63
lwrist 1.81226
lhand -52.5992 2.09098
lfingers 7.12502
lthumb -25.0818 -329.536
rfemur -20.0975 -14.6039 18.5649
rtibia 33.7927
rfoot -13.0493 -19.5821
rtoes -0.0981131
lfemur 131.858 144.503 167.664
ltibia 78.2017
lfoot 27.0967 -6.71915
ltoes 28.497
1784
root -2.77319 15.5295 18.2264 907.738 -114.324 -181.114
lowerback 6.20887 2.6564 -2.71237
upperback -6.97797 2.9464 -2.45619
thorax -10.9777 1.47783 -1.57721
lowerneck -12.0714 14.2067 11.4995
upperneck 16.8385 16.8405 1.59865
head 8.0345 8.86321 0.631029
rclavicle 1.27222e-014 0
rhumerus -15.9905 -25.7137 -7.71424
rradius 79.5964
rwrist -66.4325
rhand -36.3893 10.4402
rfingers 7.12502
rthumb -9.48545 -19.3263
lclavicle 1.27222e-014 0
lhumerus 26.4378 -58.5734 -10.4401
lradius 114.105
lwrist 0.780546
lhand -52.9 1.48303
lfingers 7.12502
lthumb -25.37 -330.185
rfemur -19.7369 -15.5054 19.405
rtibia 33.7618
rfoot -13.216 -18.6983
rtoes -0.270574
lfemur 130.039 142.843 168.43
ltibia 83.0961
lfoot 29.3555 -7.5512
ltoes 29.0448
1785
root -2.78628 15.5211 18.1472 908.28 -114.069 -182.296
lowerback 6.94759 2.70446 -2.52849
upperback -6.97728 3.02293 -2.30323
thorax -11.4227 1.50562 -1.57046
lowerneck -11.9747 14.1965 11.5745
upperneck 17.1945 16.8138 1.64933
head 8.14058 8.86445 0.643972
rclavicle -2.48481e-014 1.66979e-014
rhumerus -14.5598 -27.7001 -7.47194
rradius 76.2939
rwrist -70.511
rhand -34.6982 7.21137
rfingers 7.12502
rthumb -7.85345 -22.6228
lclavicle -2.48481e-014 1.66979e-014
lhumerus 26.7686 -59.3684 -10.2568
lradius 114.553
lwrist -0.175828
lhand -53.2296 1.04114
lfingers 7.12502
lthumb -25.6857 -330.672
rfemur -19.3036 -16.2214 20.1314
rtibia 33.7316
rfoot -13.3025 -17.8252
rtoes -0.905667
lfemur 128.484 140.954 169.314
ltibia 88.1082
lfoot 31.4479 -8.75472
ltoes 29.2426
1786
root -2.79671 15.5127 18.0733 908.727 -113.645 -183.42
lowerback 7.72213 2.77966 -2.36653
upperback -6.96128 3.13591 -2.15886
thorax -11.8751 1.55105 -1.56971
lowerneck -11.9423 14.215 11.6783
upperneck 17.6112 16.8105 1.70462
head 8.28208 8.87896 0.665987
rclavicle -6.43068e-014 0
rhumerus -13.0917 -29.6755 -7.47606
rradius 73.1006
rwrist -74.4509
rhand -33.0556 4.23304
rfingers 7.12502
rthumb -6.26786 -25.6542
lclavicle -6.43068e-014 0
lhumerus 26.7483 -60.1914 -9.81685
lradius 115.006
lwrist -1.02038
lhand -53.577 0.697816
lfingers 7.12502
lthumb -26.0183 -331.064
rfemur -18.8136 -16.7586 20.752
rtibia 33.6926
rfoot -13.3827 -16.9265
rtoes -1.373
lfemur 127.179 138.744 170.293
ltibia 93.1961
lfoot 33.3691 -10.0998
ltoes 29.3255
1787
root -2.80527 15.5042 18.0047 909.163 -113.069 -184.502
lowerback 8.44305 2.87787 -2.23536
upperback -6.93677 3.27931 -2.03337
thorax -12.2879 1.61171 -1.57618
lowerneck -11.9527 14.251 11.8141
upperneck 18.018 16.818 1.76097
head 8.43163 8.90004 0.688936
rclavicle -8.07066e-014 3.97569e-015
rhumerus -11.6422 -31.6199 -7.68759
rradius 70.0421
rwrist -78.2461
rhand -31.6133 1.63926
rfingers 7.12502
rthumb -4.87538 -28.2846
lclavicle -8.07066e-014 3.97569e-015
lhumerus 26.4121 -61.01 -9.18359
lradius 115.478
lwrist -1.76375
lhand -53.9341 0.499697
lfingers 7.12502
lthumb -26.3602 -331.312
rfemur -18.3404 -17.1249 21.2986
rtibia 33.6667
rfoot -13.4853 -16.0255
rtoes -1.74662
lfemur 126.082 136.148 171.363
ltibia 98.3129
lfoot 35.1526 -11.415
ltoes 29.4477
1788
root -2.81279 15.4958 17.9408 909.601 -112.37 -185.489
lowerback 9.03884 2.99705 -2.16759
upperback -6.91175 3.44415 -1.94084
thorax -12.6268 1.68582 -1.58188
lowerneck -11.9826 14.2922 11.9618
upperneck 18.3379 16.8264 1.81811
head 8.55651 8.9213 0.708352
rclavicle -5.14852e-014 -2.70347e-014
rhumerus -10.276 -33.4962 -8.0422
rradius 67.1321
rwrist -81.8188
rhand -30.4831 -0.460068
rfingers 7.12502
rthumb -3.784 -30.4062
lclavicle -5.14852e-014 -2.70347e-014
lhumerus 25.8328 -61.795 -8.42977
lradius 115.974
lwrist -2.3888
lhand -54.2841 0.423118
lfingers 7.12502
lthumb -26.6952 -331.44
rfemur -17.9586 -17.3311 21.7759
rtibia 33.6564
rfoot -13.5867 -15.1637
rtoes -2.03985
lfemur 125.169 133.128 172.503
ltibia 103.395
lfoot 36.8643 -12.6688
ltoes 29.6505
1789
root -2.82056 15.4883 17.8811 910.029 -111.586 -186.323
lowerback 9.4557 3.13049 -2.19119
upperback -6.89301 3.61524 -1.88948
thorax -12.8675 1.76885 -1.57392
lowerneck -11.9985 14.3302 12.1126
upperneck 18.5173 16.8327 1.86841
head 8.6318 8.9398 0.717148
rclavicle -7.65321e-014 -5.56597e-015
rhumerus -9.04546 -35.2424 -8.47434
rradius 64.3788
rwrist -85.036
rhand -29.6772 -2.00857
rfingers 7.12502
rthumb -3.00571 -31.9671
lclavicle -7.65321e-014 -5.56597e-015
lhumerus 25.0708 -62.5238 -7.61347
lradius 116.496
lwrist -2.9237
lhand -54.6131 0.423926
lfingers 7.12502
lthumb -27.01 -331.487
rfemur -17.7207 -17.4011 22.1827
rtibia 33.6759
rfoot -13.6716 -14.3652
rtoes -2.29631
lfemur 124.461 129.667 173.724
ltibia 108.379
lfoot 38.5508 -14.0362
ltoes 29.8457
1790
root -2.83017 15.4878 17.8244 910.39 -110.758 -186.933
lowerback 9.67565 3.2721 -2.33442
upperback -6.88167 3.77827 -1.88318
thorax -13.0018 1.85689 -1.53585
lowerneck -12.0113 14.3609 12.2444
upperneck 18.56 16.8308 1.92904
head 8.65637 8.95277 0.723437
rclavicle 4.87022e-015 1.27222e-014
rhumerus -7.97915 -36.8019 -8.9191
rradius 61.7601
rwrist -87.7364
rhand -29.1215 -3.0445
rfingers 7.12502
rthumb -2.46908 -33.01
lclavicle 4.87022e-015 1.27222e-014
lhumerus 24.2121 -63.1773 -6.78834
lradius 117.033
lwrist -3.35841
lhand -54.8965 0.393578
lfingers 7.12502
lthumb -27.2812 -331.56
rfemur -17.6185 -17.3707 22.5114
rtibia 33.6971
rfoot -13.7331 -13.643
rtoes -2.51763
lfemur 124.075 125.781 175.087
ltibia 113.171
lfoot 40.204 -15.7161
ltoes 29.9999
1791
root -2.84123 15.4895 17.7694 910.607 -109.963 -187.24
lowerback 9.71724 3.40336 -2.60865
upperback -6.88297 3.90532 -1.92166
thorax -13.0487 1.93779 -1.45572
lowerneck -12.009 14.3785 12.3573
upperneck 18.4702 16.8166 1.99189
head 8.62997 8.95755 0.723236
rclavicle -4.54223e-014 -2.06736e-014
rhumerus -7.08256 -38.1429 -9.3362
rradius 59.2588
rwrist -89.7642
rhand -28.7184 -3.67394
rfingers 7.12502
rthumb -2.0797 -33.6436
lclavicle -4.54223e-014 -2.06736e-014
lhumerus 23.3478 -63.7577 -6.01243
lradius 117.583
lwrist -3.67153
lhand -55.1268 0.258498
lfingers 7.12502
lthumb -27.5015 -331.73
rfemur -17.6601 -17.3038 22.7563
rtibia 33.72
rfoot -13.7675 -13.005
rtoes -2.66995
lfemur 124.064 121.535 176.692
ltibia 117.772
lfoot 41.7619 -17.8991
ltoes 30.0524
1792
root -2.8542 15.4962 17.7151 910.628 -109.237 -187.234
lowerback 9.63432 3.51788 -3.00134
upperback -6.89106 3.99041 -1.99507
thorax -13.0345 2.00783 -1.33114
lowerneck -11.9892 14.3796 12.4464
upperneck 18.2689 16.7886 2.05207
head 8.55934 8.95264 0.716184
rclavicle 1.2424e-014 5.00937e-014
rhumerus -6.34713 -39.2533 -9.69806
rradius 56.8716
rwrist -91.0548
rhand -28.3745 -4.09269
rfingers 7.12502
rthumb -1.74761 -34.0653
lclavicle 1.2424e-014 5.00937e-014
lhumerus 22.5517 -64.2679 -5.32465
lradius 118.132
lwrist -3.87033
lhand -55.3038 -0.0507561
lfingers 7.12502
lthumb -27.6707 -332.066
rfemur -17.7821 -17.2316 22.9194
rtibia 33.7194
rfoot -13.7705 -12.4546
rtoes -2.77793
lfemur 124.756 116.973 178.842
ltibia 122.136
lfoot 43.1055 -20.6331
ltoes 29.8855
1793
root -2.86884 15.5062 17.6609 910.384 -108.628 -186.9
lowerback 9.49319 3.60159 -3.49589
upperback -6.89684 4.01779 -2.09311
thorax -12.989 2.0581 -1.1608
lowerneck -11.9548 14.3653 12.517
upperneck 17.9901 16.747 2.10823
head 8.45757 8.93857 0.703199
rclavicle -3.69739e-014 -2.70347e-014
rhumerus -5.73635 -40.1376 -10.0158
rradius 54.5975
rwrist -91.6359
rhand -28.0681 -4.38755
rfingers 7.12502
rthumb -1.45171 -34.3624
lclavicle -3.69739e-014 -2.70347e-014
lhumerus 21.8719 -64.7126 -4.74974
lradius 118.671
lwrist -3.97882
lhand -55.459 -0.595647
lfingers 7.12502
lthumb -27.8191 -332.635
rfemur -17.9322 -17.2033 22.9968
rtibia 33.7091
rfoot -13.7705 -11.9854
rtoes -2.82377
lfemur 126.733 112.19 182.124
ltibia 126.254
lfoot 44.1339 -23.6992
ltoes 29.6774
